<svg xmlns="http://www.w3.org/2000/svg" viewBox="0 0 512 512" id="trash-can">
  <path fill="#231f20" d="M309.36 428.79H202.64c-19.9 0-36.51-14.3-37.82-32.56l-14.39-200.45a8 8 0 0 1 16-1.15l14.39 200.45c.71 9.93 10.31 17.71 21.86 17.71h106.68c11.55 0 21.15-7.78 21.86-17.7l14.39-200.46a8 8 0 0 1 16 1.15l-14.43 200.45c-1.31 18.26-17.92 32.56-37.82 32.56Z"></path>
  <path fill="#231f20" d="M371.28 203.2h-17.69a8 8 0 0 1 0-16h17.69c3.19 0 6.76-4.88 6.76-11.41V158c0-6.53-3.57-11.41-6.76-11.41H140.72c-3.19 0-6.76 4.88-6.76 11.41v17.76c0 6.53 3.57 11.41 6.76 11.41h17.69a8 8 0 1 1 0 16h-17.69c-12.76 0-22.76-12-22.76-27.41V158c0-15.37 10-27.41 22.76-27.41h230.56c12.76 0 22.76 12 22.76 27.41v17.76c-.04 15.4-10.04 27.44-22.76 27.44Z"></path>
  <path fill="#231f20" d="M295.76 146.62h-80.29a8 8 0 0 1-8-8v-45.7a9.73 9.73 0 0 1 9.72-9.71H294a9.73 9.73 0 0 1 9.72 9.71v45.7a8 8 0 0 1-7.96 8zm-72.29-16h64.29V99.21h-64.29zM304.26 196h-97.91a8 8 0 0 1 0-16h97.91a8 8 0 0 1 0 16zM256 378.71a8 8 0 0 1-8-8V253a8 8 0 0 1 16 0v117.71a8 8 0 0 1-8 8zm-40.54 0a8 8 0 0 1-7.94-7.1l-13.31-117.77a8 8 0 0 1 15.9-1.79l13.31 117.76a8 8 0 0 1-7 8.85c-.35.03-.66.05-.96.05zm80.54 0h-.91a8 8 0 0 1-7.05-8.85l13.31-117.76a8 8 0 0 1 15.9 1.79L304 371.61a8 8 0 0 1-8 7.1z"></path>
</svg>
